<?xml version="1.0" standalone="no"?>
<!DOCTYPE svg PUBLIC "-//W3C//DTD SVG 20010904//EN"
 "http://www.w3.org/TR/2001/REC-SVG-20010904/DTD/svg10.dtd">
<svg version="1.0" xmlns="http://www.w3.org/2000/svg"
 width="700.000000pt" height="700.000000pt" viewBox="0 0 700.000000 700.000000"
 preserveAspectRatio="xMidYMid meet">
<metadata>
Created by potrace 1.11, written by Peter Selinger 2001-2013
</metadata>
<g transform="translate(0.000000,700.000000) scale(0.100000,-0.100000)"
fill="#000000" stroke="none">
<path d="M2316 6980 c-53 -27 -82 -55 -106 -105 -50 -104 -5 -235 100 -290 29
-16 60 -19 175 -20 l140 -2 0 -729 0 -729 -125 -208 c-69 -114 -132 -220 -140
-235 -12 -22 -112 -187 -230 -382 -97 -159 -230 -385 -230 -392 0 -4 -4 -8 -9
-8 -5 0 -11 -6 -13 -13 -2 -7 -52 -95 -113 -196 -60 -100 -119 -198 -130 -216
-42 -71 -96 -161 -118 -196 -20 -34 -107 -178 -151 -253 -10 -17 -61 -103
-115 -191 -53 -88 -100 -168 -106 -178 -8 -14 -422 -703 -455 -757 -14 -22
-179 -298 -206 -345 -218 -369 -281 -651 -209 -926 40 -155 118 -272 254 -381
138 -111 326 -183 561 -215 70 -10 4748 -10 4815 -1 304 44 525 146 668 309
84 96 157 255 172 374 7 56 8 241 2 253 -3 4 -8 29 -11 56 -11 78 -80 274
-134 377 -27 52 -95 171 -152 264 -56 94 -114 190 -129 215 -14 25 -177 296
-361 602 -184 307 -339 565 -345 575 -5 10 -287 479 -625 1042 l-615 1025 0
728 c0 400 2 728 5 729 3 1 64 2 135 3 92 2 140 7 165 18 159 70 175 290 27
385 l-42 28 -1155 2 c-1131 2 -1156 2 -1194 -17z m1595 -419 l26 -1 0 -788 0
-788 47 -79 c26 -44 179 -300 341 -570 162 -269 295 -491 295 -492 0 -2 19
-33 43 -71 56 -90 57 -93 119 -196 29 -49 62 -104 73 -122 71 -118 224 -373
243 -407 13 -23 38 -64 56 -92 18 -27 35 -57 39 -65 4 -8 40 -69 81 -135 40
-66 70 -122 66 -125 -10 -6 -3677 -6 -3683 0 -3 4 811 1370 891 1495 11 17
131 217 267 445 l248 415 0 787 c0 697 2 787 15 790 13 2 748 1 833 -1z"/>
</g>
</svg>
